<?xml version="1.0" standalone="no"?>
<!DOCTYPE svg PUBLIC "-//W3C//DTD SVG 20010904//EN"
 "http://www.w3.org/TR/2001/REC-SVG-20010904/DTD/svg10.dtd">
<svg version="1.0" xmlns="http://www.w3.org/2000/svg"
 width="200.000000pt" height="200.000000pt" viewBox="0 0 200.000000 200.000000"
 preserveAspectRatio="xMidYMid meet">
<metadata>
Created by potrace 1.16, written by Peter Selinger 2001-2019
</metadata>
<g transform="translate(0.000000,200.000000) scale(0.100000,-0.100000)"
fill="#000000" stroke="none">
<path d="M0 1000 l0 -1000 1000 0 1000 0 0 1000 0 1000 -1000 0 -1000 0 0
-1000z m1080 761 c4 -38 9 -46 32 -52 24 -6 30 -3 49 27 11 19 26 34 32 34 13
0 117 -58 117 -65 0 -2 -10 -20 -21 -40 l-22 -37 25 -25 25 -25 34 21 c19 12
37 21 41 21 8 0 68 -104 68 -119 0 -25 -20 -8 -47 38 l-27 50 -39 -22 -38 -21
-36 37 -37 36 17 36 c23 48 22 49 -20 69 -31 15 -38 15 -44 3 -5 -7 -16 -23
-26 -35 -17 -21 -21 -21 -63 -8 -44 13 -45 14 -48 60 l-3 46 -45 0 -44 0 0
-39 c0 -45 -9 -54 -68 -69 l-43 -10 -22 38 -22 39 -35 -21 c-19 -12 -36 -23
-38 -24 -2 -1 6 -20 17 -42 l20 -39 -39 -38 -38 -38 -37 23 c-20 12 -37 21
-39 19 -2 -2 -15 -23 -30 -46 -23 -39 -46 -56 -46 -35 0 16 61 112 72 112 6 0
25 -9 43 -20 l32 -20 24 26 24 25 -23 39 -22 39 61 36 c33 21 63 34 66 31 3
-3 16 -21 27 -39 19 -31 23 -33 54 -25 30 8 32 11 32 54 l0 45 73 -3 72 -3 5
-44z m53 -144 c29 -13 67 -37 86 -53 40 -33 91 -110 91 -136 0 -30 -15 -20
-33 21 -23 51 -85 114 -139 142 -31 16 -67 24 -124 27 -72 4 -89 1 -135 -20
-74 -34 -115 -71 -152 -137 -33 -59 -53 -50 -22 9 78 151 273 218 428 147z
m-50 -141 c13 -11 27 -12 50 -5 48 14 57 -6 57 -122 0 -117 -10 -149 -44 -149
-34 0 -46 26 -46 104 0 37 -4 66 -10 66 -6 0 -10 -29 -10 -66 0 -78 -12 -104
-46 -104 -31 0 -44 31 -44 111 0 87 -19 72 -22 -17 -2 -60 -7 -79 -20 -88 -13
-8 -23 -8 -35 0 -14 9 -19 28 -21 88 -2 55 -6 76 -15 73 -7 -2 -13 -29 -15
-70 -2 -53 -7 -69 -22 -77 -25 -13 -49 -3 -56 24 -2 11 -4 62 -2 111 l3 90 45
0 c25 0 55 6 67 13 12 6 41 12 65 12 24 0 50 5 58 10 21 13 42 12 63 -4z
m-470 -86 c30 -26 43 -30 91 -30 l56 0 0 -45 0 -45 -59 0 c-53 0 -63 -3 -89
-30 -40 -39 -98 -42 -139 -5 l-28 24 40 1 c31 0 44 6 58 25 17 23 17 26 1 50
-13 20 -25 25 -55 25 -46 0 -49 11 -13 39 40 32 95 28 137 -9z m906 4 c76 -63
29 -184 -71 -184 -27 0 -47 8 -71 30 -31 27 -42 30 -101 30 l-66 0 0 45 0 45
66 0 c59 0 70 3 101 30 44 39 98 41 142 4z m-213 -201 c-10 -37 -61 -108 -99
-137 -131 -100 -307 -94 -430 14 -45 39 -92 115 -81 131 4 7 18 -9 36 -40 30
-51 75 -93 138 -127 27 -15 56 -19 130 -19 86 0 100 3 142 28 61 35 110 86
133 137 20 45 41 54 31 13z m154 -63 c0 -14 -60 -120 -68 -120 -4 0 -22 9 -41
21 l-34 21 -25 -25 -25 -25 22 -38 23 -38 -24 -17 c-13 -10 -40 -26 -62 -36
-42 -19 -39 -20 -79 40 -10 15 -17 17 -39 8 -22 -8 -27 -17 -30 -53 l-3 -43
-72 -3 -73 -3 0 45 c0 41 -2 45 -32 55 -34 12 -35 12 -64 -41 -8 -16 -17 -28
-20 -28 -6 0 -93 49 -111 63 -10 7 -7 18 10 47 l22 39 -24 25 -24 26 -32 -20
c-18 -11 -37 -20 -43 -20 -11 0 -72 96 -72 113 0 19 29 4 39 -20 7 -16 18 -36
26 -47 13 -18 15 -18 50 4 l37 23 38 -38 39 -38 -21 -39 c-12 -21 -20 -39 -17
-41 2 -2 20 -13 39 -25 l35 -21 23 40 c16 28 28 39 39 35 8 -3 27 -9 41 -12
42 -10 52 -23 52 -66 l0 -39 43 3 c42 3 42 3 47 47 5 42 7 44 50 57 57 17 58
17 65 -3 3 -10 12 -26 19 -36 13 -17 15 -17 50 -1 41 20 42 21 19 69 l-17 36
37 36 36 37 38 -21 39 -22 27 50 c26 45 47 63 47 39z m-1094 -538 c12 -46 24
-85 26 -87 2 -2 14 36 27 85 21 82 26 90 47 90 l24 0 0 -150 c0 -142 -1 -150
-20 -150 -18 0 -20 8 -22 93 l-3 92 -15 -60 c-11 -40 -21 -61 -33 -63 -18 -4
-27 13 -50 93 l-15 50 -1 -102 c-1 -96 -2 -103 -21 -103 -19 0 -20 7 -20 151
l0 150 27 -3 c24 -3 28 -10 49 -86z m312 75 c7 -7 11 -64 11 -137 0 -73 -4
-130 -11 -137 -13 -16 -100 -17 -116 -1 -7 7 -12 27 -12 45 0 29 3 33 25 33
21 0 25 -5 25 -30 0 -23 4 -30 20 -30 17 0 20 7 20 49 0 44 -3 50 -22 53 -34
5 -37 38 -4 38 24 0 26 3 26 50 0 43 -3 50 -20 50 -16 0 -20 -7 -20 -30 0 -25
-4 -30 -25 -30 -22 0 -25 4 -25 33 0 18 5 38 12 45 16 16 103 15 116 -1z m205
-126 c32 -166 32 -161 8 -161 -20 0 -31 18 -31 51 0 15 -7 19 -35 19 -28 0
-35 -4 -35 -19 0 -33 -11 -51 -31 -51 -23 0 -24 -11 6 156 14 76 25 140 25
142 0 1 15 2 33 2 l34 0 26 -139z m127 4 l0 -135 40 0 c29 0 40 -4 40 -15 0
-12 -14 -15 -65 -15 l-65 0 0 150 0 150 25 0 25 0 0 -135z m170 0 l0 -135 35
0 c24 0 35 -5 35 -15 0 -12 -13 -15 -60 -15 l-60 0 0 150 0 150 25 0 25 0 0
-135z m250 120 c0 -11 -12 -15 -45 -15 l-45 0 0 -50 0 -50 35 0 c24 0 35 -5
35 -15 0 -10 -11 -15 -35 -15 l-35 0 0 -55 0 -55 45 0 c33 0 45 -4 45 -15 0
-12 -14 -15 -65 -15 l-65 0 0 150 0 150 65 0 c51 0 65 -3 65 -15z m131 -77
l25 -92 25 89 c24 82 28 90 52 93 l27 3 0 -150 c0 -144 -1 -151 -20 -151 -19
0 -20 7 -21 103 l-1 102 -22 -70 c-17 -55 -26 -70 -41 -70 -16 0 -23 13 -37
60 l-16 60 -1 -92 c-1 -92 -1 -93 -26 -93 l-25 0 0 150 0 150 28 0 c26 0 29
-4 53 -92z"/>
</g>
</svg>
